<svg width="1722" height="564" viewBox="0 0 1722 564" fill="none" xmlns="http://www.w3.org/2000/svg">
<path fill-rule="evenodd" clip-rule="evenodd" d="M1721.36 0.318604C1715.69 10.4019 1709.92 20.3426 1704.1 30.1237C1661.7 101.393 1594.21 148.871 1526.1 196.787C1487.33 224.059 1448.36 251.472 1413.7 283.494C1384.14 310.804 1358.74 343.112 1333.49 375.232C1288.97 431.847 1244.92 487.88 1179.36 514.932C1116 541.08 1047.73 532.336 978.699 523.494C936.581 518.099 894.178 512.668 852.43 515.103C808.3 517.676 764.394 528.475 720.78 539.201C648.485 556.982 576.993 574.565 506.614 554.164C407.964 525.569 334.867 447.712 263.553 371.755C251.627 359.052 239.75 346.403 227.812 334.045C207.495 313.014 185.023 292.415 162.344 271.626C85.6726 201.346 6.62714 128.889 0.43547 30.1977C-0.204216 20.0015 0.0637569 10.0531 1.12617 0.318604H1721.36Z" fill="url(#paint0_linear)"/>
<defs>
<linearGradient id="paint0_linear" x1="860.727" y1="0.318604" x2="860.727" y2="563.319" gradientUnits="userSpaceOnUse">
<stop stop-color="#B9F5E7"/>
<stop offset="1" stop-color="#E3FCD2"/>
</linearGradient>
</defs>
</svg>
