<svg width="1360" height="563" viewBox="0 0 1360 563" fill="none" xmlns="http://www.w3.org/2000/svg">
    <path fill-rule="evenodd" clip-rule="evenodd" d="M1360 201.397C1323.56 227.058 1287.18 253.081 1254.61 283.175C1225.05 310.485 1199.65 342.793 1174.39 374.914C1129.88 431.529 1085.83 487.561 1020.27 514.613C956.906 540.761 888.639 532.017 819.607 523.175C777.489 517.781 735.086 512.349 693.337 514.784C649.208 517.358 605.302 528.156 561.688 538.883C489.393 556.663 417.9 574.246 347.521 553.846C248.872 525.25 175.775 447.394 104.461 371.437C92.5345 358.734 80.6579 346.084 68.72 333.727C48.403 312.696 25.9311 292.097 3.25153 271.308C2.16809 270.315 1.08418 269.321 0 268.327V0H1360V201.397Z" fill="url(#paint0_linear)"/>
    <defs>
        <linearGradient id="paint0_linear" x1="680" y1="0" x2="680" y2="563" gradientUnits="userSpaceOnUse">
            <stop stop-color="#B9F5E7"/>
            <stop offset="1" stop-color="#E3FCD2"/>
        </linearGradient>
    </defs>
</svg>
