<svg width="168" height="58" viewBox="0 0 168 58" fill="none" xmlns="http://www.w3.org/2000/svg">
    <path d="M32.8833 7.43792L8.89119 14.8758L0 17.5936L0.14113 27.177L0.28226 44.3415L0.42339 57.0718L12.984 56.9287L29.9196 56.7857L39.2342 56.6427L41.7745 47.4883L48.5487 23.029L55.4641 0L32.8833 7.43792ZM29.7784 44.0554L12.8428 44.1984L12.7017 27.034L36.6938 19.5961L29.7784 44.0554Z" fill="url(#paint0_linear)"/>
    <path d="M64.4612 31.3171C69.3833 31.3171 74.6569 33.7868 75.8874 39.9608H69.5591C68.5043 38.0204 66.9223 37.1384 64.4612 37.1384C60.4181 37.1384 58.1329 40.3136 58.1329 44.1944C58.1329 48.428 60.5939 51.0741 64.4612 51.0741C67.098 51.0741 68.6801 50.3685 69.9106 48.0752H64.637V42.6068H76.4148C76.5906 45.0764 76.5906 47.3696 75.7116 49.8393C73.9537 55.1313 69.2075 57.0717 64.4612 57.0717C58.1329 57.0717 51.6288 52.8381 51.6288 44.1944C51.6288 35.5508 58.1329 31.3171 64.4612 31.3171Z" fill="#282727"/>
    <path d="M101.377 55.6605V56.5425H94.5209L90.302 48.7808H86.7862V56.5425H80.2821V31.6699C83.9736 31.6699 87.6652 31.6699 91.3567 31.6699C97.3335 31.6699 100.322 36.0799 100.322 40.49C100.322 43.3124 99.0913 46.1348 96.6303 47.7224L101.377 55.6605ZM91.1809 43.4888C92.9388 43.4888 93.8177 41.9012 93.8177 40.3136C93.8177 38.726 92.9388 37.3148 91.1809 37.3148H86.6104V43.4888H91.1809Z" fill="#282727"/>
    <path d="M110.166 53.5437L108.76 56.7189H101.904V55.8369L113.33 31.3171H116.319L127.745 55.8369V56.7189H121.065L119.658 53.5437H110.166ZM112.275 48.0752H117.373L114.736 42.0776L112.275 48.0752Z" fill="#282727"/>
    <path d="M141.983 51.4269V56.7189H129.151V51.4269H132.315V36.962H129.503V31.6699H141.808V36.962H138.819V51.4269H141.983Z" fill="#282727"/>
    <path d="M152.882 43.8416V56.7189H146.378V31.4935H148.488L161.496 43.8416V31.6699H168V56.8953H166.066L152.882 43.8416Z" fill="#282727"/>
    <path d="M131.788 27.9654C131.612 27.9654 131.612 27.9654 131.436 27.789L130.909 27.4362C130.909 27.4362 130.733 27.2598 130.733 27.0834V11.3837C130.733 11.2073 130.733 11.2073 130.909 11.0309L131.436 10.6781C131.612 10.5017 131.612 10.5017 131.788 10.5017H135.479C135.655 10.5017 135.655 10.5017 135.831 10.6781L136.358 11.0309C136.358 11.2073 136.534 11.2073 136.534 11.3837V14.9117H134.776V12.4421C134.776 12.2657 134.776 12.2657 134.6 12.2657H133.018C132.843 12.2657 132.843 12.2657 132.843 12.4421V26.2014C132.843 26.3778 132.843 26.3778 133.018 26.3778H134.6C134.776 26.3778 134.776 26.3778 134.776 26.2014V23.9082H136.534V27.2598C136.534 27.4362 136.534 27.4362 136.358 27.6126L135.831 27.9654C135.655 28.1418 135.655 28.1418 135.479 28.1418H131.788V27.9654Z" fill="#333333"/>
    <path d="M146.906 26.2015V27.9655H142.335C142.159 27.9655 142.159 27.9655 141.983 27.7891L141.456 27.2599L141.28 27.0835V10.3254H143.038V26.0251C143.038 26.2015 143.038 26.2015 143.214 26.2015H146.906Z" fill="#333333"/>
    <path d="M152.706 27.9655C152.531 27.9655 152.531 27.9655 152.355 27.7891L151.828 27.2599V27.0835V10.3254H153.585V26.0251C153.585 26.2015 153.585 26.2015 153.761 26.2015H155.343C155.343 26.2015 155.519 26.2015 155.519 26.0251V10.3254H157.277V27.0835C157.277 27.0835 157.277 27.2599 157.101 27.2599L156.574 27.7891C156.574 27.9655 156.398 27.9655 156.398 27.9655H152.706Z" fill="#333333"/>
    <path d="M167.824 11.3838V17.0287V17.2051L167.297 17.7343C167.121 17.9107 167.121 18.0871 167.297 18.2635L167.824 18.7927C167.824 18.7927 167.824 18.9691 167.824 19.1455V26.9071V27.0835L167.121 27.7891C167.121 27.9655 166.945 27.9655 166.945 27.9655H162.375V10.3254H166.945C167.121 10.3254 167.121 10.3254 167.121 10.5018L167.824 11.2074C167.824 11.2074 167.824 11.2074 167.824 11.3838ZM164.133 12.0895V17.2051H165.715C165.891 17.2051 166.066 17.0287 166.066 16.8523V12.2659C166.066 12.0894 166.066 12.0895 165.891 12.0895H164.133ZM166.066 26.0251V19.3219C166.066 19.1455 165.891 18.9691 165.715 18.9691H164.133V26.2015H165.891C166.066 26.2015 166.066 26.0251 166.066 26.0251Z" fill="#333333"/>
    <defs>
        <linearGradient id="paint0_linear" x1="55.7273" y1="1.23326" x2="-1.11024" y2="56.255" gradientUnits="userSpaceOnUse">
            <stop stop-color="#E62B88"/>
            <stop offset="1" stop-color="#662483"/>
        </linearGradient>
    </defs>
</svg>
